<svg width="48" height="48" viewBox="0 0 48 48" fill="none" xmlns="http://www.w3.org/2000/svg">
<g id="icon_search">
<path id="Vector" d="M20.8116 0.0594617C9.33548 0.0594617 0 9.39495 0 20.871C0 32.3471 9.33548 41.6826 20.8116 41.6826C24.3198 41.6826 27.7686 40.8502 30.6822 39.2447C30.9156 39.5256 31.1744 39.7843 31.4552 40.0177L37.4014 45.9639C37.9504 46.5817 38.62 47.0808 39.3689 47.4304C40.1178 47.7801 40.9303 47.9731 41.7564 47.9974C42.5826 48.0217 43.405 47.8769 44.1732 47.5719C44.9414 47.2668 45.6391 46.808 46.2236 46.2236C46.808 45.6391 47.2668 44.9414 47.5719 44.1732C47.8769 43.405 48.0217 42.5826 47.9974 41.7564C47.973 40.9303 47.7801 40.1178 47.4304 39.3689C47.0807 38.62 46.5817 37.9504 45.9639 37.4014L40.0177 31.4552C39.7281 31.1655 39.4092 30.9064 39.0663 30.6822C40.6718 27.7686 41.6826 24.3793 41.6826 20.8116C41.6826 9.33548 32.3471 0 20.871 0L20.8116 0.0594617ZM20.8116 6.00563C29.0768 6.00563 35.677 12.6059 35.677 20.871C35.677 24.7955 34.2499 28.4227 31.7525 31.0985C31.6931 31.1579 31.6336 31.2174 31.5741 31.2768C31.2933 31.5102 31.0345 31.769 30.8011 32.0498C28.1848 34.4283 24.6171 35.7959 20.7521 35.7959C12.487 35.7959 5.88671 29.1957 5.88671 20.9305C5.88671 12.6653 12.487 6.06509 20.7521 6.06509L20.8116 6.00563Z" fill="black"/>
</g>
</svg>
