<svg width="48" height="48" viewBox="0 0 48 48" fill="none" xmlns="http://www.w3.org/2000/svg">
<g clip-path="url(#clip0_40_5652)">
<path d="M43.0913 0H15.3591C15.0095 0 14.6693 0.141732 14.4142 0.387402L3.96379 10.8472C3.71812 11.0929 3.57639 11.4331 3.57639 11.7921V46.6677C3.57639 47.4047 4.17166 48 4.90867 48H43.0913C43.8284 48 44.4236 47.4047 44.4236 46.6677V1.33228C44.4236 0.595276 43.8284 0 43.0913 0ZM14.0268 4.55433V10.4598H8.12127L14.0268 4.55433ZM41.7591 45.3354H6.2315V13.1244H15.3496C16.0866 13.1244 16.6819 12.5291 16.6819 11.7921V2.66457H41.7591V45.3354Z" fill="black"/>
<path d="M38.0551 40.2992H9.93543C9.19842 40.2992 8.60315 40.8945 8.60315 41.6315C8.60315 42.3685 9.19842 42.9638 9.93543 42.9638H38.0457C38.7827 42.9638 39.378 42.3685 39.378 41.6315C39.378 40.8945 38.7921 40.2992 38.0551 40.2992Z" fill="black"/>
<path d="M22.285 32.0693H9.93543C9.19842 32.0693 8.60315 32.6646 8.60315 33.4016C8.60315 34.1291 9.19842 34.7339 9.93543 34.7339H22.285C23.022 34.7339 23.6173 34.1386 23.6173 33.4016C23.6173 32.6646 23.022 32.0693 22.285 32.0693Z" fill="black"/>
<path d="M18.6189 23.8299H9.93543C9.19842 23.8299 8.60315 24.4252 8.60315 25.1622C8.60315 25.8992 9.19842 26.4945 9.93543 26.4945H18.6189C19.3559 26.4945 19.9512 25.8992 19.9512 25.1622C19.9512 24.4252 19.3559 23.8299 18.6189 23.8299Z" fill="black"/>
<path d="M18.6189 15.6H9.93543C9.19842 15.6 8.60315 16.1953 8.60315 16.9323C8.60315 17.6693 9.19842 18.2646 9.93543 18.2646H18.6189C19.3559 18.2646 19.9512 17.6693 19.9512 16.9323C19.9512 16.1953 19.3559 15.6 18.6189 15.6Z" fill="black"/>
<path d="M38.0551 7.37009H22.8047C22.0677 7.37009 21.4724 7.96536 21.4724 8.70237C21.4724 9.43938 22.0677 10.0347 22.8047 10.0347H38.0457C38.7827 10.0347 39.378 9.43938 39.378 8.70237C39.378 7.96536 38.7921 7.37009 38.0551 7.37009Z" fill="black"/>
<path d="M30.1843 12.6047C25.1008 12.6047 20.9717 16.7433 20.9717 21.8173C20.9528 25.3039 22.9181 28.337 25.7906 29.8961V37.474C25.7906 37.9465 26.0268 38.4189 26.4614 38.6268C26.8205 38.8063 27.4819 38.8063 27.7937 38.6268L30.1748 37.2472L32.5559 38.6268C32.9717 38.863 33.4724 38.863 33.8882 38.6268C34.3039 38.3905 34.5591 37.9465 34.5591 37.474V29.9055C37.4315 28.3465 39.3969 25.3039 39.3969 21.8173C39.3969 16.7339 35.2583 12.6047 30.1843 12.6047ZM30.1654 34.3748C29.9291 34.3748 29.7024 34.4315 29.4945 34.5543L28.4457 35.1591V30.8693C29.5701 31.0772 30.7512 31.0772 31.8756 30.8693V35.1536L30.8362 34.5543C30.6284 34.4315 30.4016 34.3748 30.1654 34.3748ZM30.1654 28.3654C26.5559 28.3654 23.6173 25.4268 23.6173 21.8173C23.6173 18.2079 26.5559 15.2693 30.1654 15.2693C33.7748 15.2693 36.7134 18.2079 36.7134 21.8173C36.7134 25.4268 33.7748 28.3654 30.1654 28.3654Z" fill="black"/>
</g>
<defs>
<clipPath id="clip0_40_5652">
<rect width="48" height="48" fill="white"/>
</clipPath>
</defs>
</svg>
