<svg width="60" height="49" viewBox="0 0 60 49" fill="none" xmlns="http://www.w3.org/2000/svg">
<g id="icon_people" clip-path="url(#clip0_39_37)">
<path id="Vector" d="M13.5 0.959717C15.4891 0.959717 17.3968 1.74989 18.8033 3.15642C20.2098 4.56294 21 6.47059 21 8.45972C21 10.4488 20.2098 12.3565 18.8033 13.763C17.3968 15.1695 15.4891 15.9597 13.5 15.9597C11.5109 15.9597 9.60322 15.1695 8.1967 13.763C6.79018 12.3565 6 10.4488 6 8.45972C6 6.47059 6.79018 4.56294 8.1967 3.15642C9.60322 1.74989 11.5109 0.959717 13.5 0.959717ZM48 0.959717C49.9891 0.959717 51.8968 1.74989 53.3033 3.15642C54.7098 4.56294 55.5 6.47059 55.5 8.45972C55.5 10.4488 54.7098 12.3565 53.3033 13.763C51.8968 15.1695 49.9891 15.9597 48 15.9597C46.0109 15.9597 44.1032 15.1695 42.6967 13.763C41.2902 12.3565 40.5 10.4488 40.5 8.45972C40.5 6.47059 41.2902 4.56294 42.6967 3.15642C44.1032 1.74989 46.0109 0.959717 48 0.959717ZM0 28.9628C0 23.441 4.48125 18.9597 10.0031 18.9597H14.0062C15.4969 18.9597 16.9125 19.2878 18.1875 19.8691C18.0656 20.5441 18.0094 21.2472 18.0094 21.9597C18.0094 25.541 19.5844 28.7566 22.0687 30.9597C22.05 30.9597 22.0312 30.9597 22.0031 30.9597H1.99687C0.9 30.9597 0 30.0597 0 28.9628ZM37.9969 30.9597C37.9781 30.9597 37.9594 30.9597 37.9313 30.9597C40.425 28.7566 41.9906 25.541 41.9906 21.9597C41.9906 21.2472 41.925 20.5535 41.8125 19.8691C43.0875 19.2785 44.5031 18.9597 45.9938 18.9597H49.9969C55.5187 18.9597 60 23.441 60 28.9628C60 30.0691 59.1 30.9597 58.0031 30.9597H37.9969ZM21 21.9597C21 19.5728 21.9482 17.2836 23.636 15.5958C25.3239 13.9079 27.6131 12.9597 30 12.9597C32.3869 12.9597 34.6761 13.9079 36.364 15.5958C38.0518 17.2836 39 19.5728 39 21.9597C39 24.3467 38.0518 26.6359 36.364 28.3237C34.6761 30.0115 32.3869 30.9597 30 30.9597C27.6131 30.9597 25.3239 30.0115 23.636 28.3237C21.9482 26.6359 21 24.3467 21 21.9597ZM12 46.4566C12 39.5566 17.5969 33.9597 24.4969 33.9597H35.5031C42.4031 33.9597 48 39.5566 48 46.4566C48 47.8347 46.8844 48.9597 45.4969 48.9597H14.5031C13.125 48.9597 12 47.8441 12 46.4566Z" fill="black"/>
</g>
<defs>
<clipPath id="clip0_39_37">
<rect width="60" height="48" fill="white" transform="translate(0 0.959717)"/>
</clipPath>
</defs>
</svg>
